Coordinates
version=1
nRows=11
nColumns=63
inDegrees=yes

Units are S.I. units (second, meters, Newtons, ...)
If the header above contains a line with 'inDegrees', this indicates whether rotational values are in degrees (yes) or radians (no).

endheader
time	pelvis_tilt	pelvis_list	pelvis_rotation	pelvis_tx	pelvis_ty	pelvis_tz	hip_flexion_r	hip_adduction_r	hip_rotation_r	knee_angle_r	knee_angle_r_beta	ankle_angle_r	subtalar_angle_r	mtp_angle_r	hip_flexion_l	hip_adduction_l	hip_rotation_l	knee_angle_l	knee_angle_l_beta	ankle_angle_l	subtalar_angle_l	mtp_angle_l	L5_S1_Flex_Ext	L5_S1_Lat_Bending	L5_S1_axial_rotation	L4_L5_Flex_Ext	L4_L5_Lat_Bending	L4_L5_axial_rotation	L3_L4_Flex_Ext	L3_L4_Lat_Bending	L3_L4_axial_rotation	L2_L3_Flex_Ext	L2_L3_Lat_Bending	L2_L3_axial_rotation	L1_L2_Flex_Ext	L1_L2_Lat_Bending	L1_L2_axial_rotation	L1_T12_Flex_Ext	L1_T12_Lat_Bending	L1_T12_axial_rotation	Abs_r3	Abs_r2	Abs_r1	Abs_t1	Abs_t2	neck_flexion	neck_bending	neck_rotation	arm_flex_r	arm_add_r	arm_rot_r	elbow_flex_r	pro_sup_r	wrist_flex_r	wrist_dev_r	arm_flex_l	arm_add_l	arm_rot_l	elbow_flex_l	pro_sup_l	wrist_flex_l	wrist_dev_l
2.700000	-3.594897	0.975880	85.650288	-0.074367	0.819660	0.622167	-3.344277	-6.391712	-7.139966	12.749195	0.222515	30.706895	12.257341	0.000000	-5.434863	2.828891	-15.951983	7.022588	0.122567	30.292533	16.992427	0.000000	0.013436	-0.945855	2.125587	0.024952	-1.257987	2.258436	0.022074	-2.299752	2.258436	0.015356	-2.299752	1.859888	0.012477	-1.928788	1.727039	0.007677	-1.465130	1.594190	0.095972	-10.699702	11.821876	0.000000	0.000000	18.329446	-2.044196	-20.489042	-201.058152	-48.987503	-312.197046	48.220322	88.080835	-16.942339	-2.131955	149.066630	-12.410654	131.650765	1.435527	2.552949	-25.290954	-24.171854
2.716667	-3.722448	0.709599	85.883206	-0.074326	0.819785	0.621868	-3.120151	-6.467962	-7.291225	12.674942	0.221219	30.721872	12.287682	0.000000	-5.188054	2.903290	-15.672203	6.968294	0.121620	30.069454	17.002620	0.000000	0.024069	-0.991192	2.190643	0.044699	-1.318286	2.327559	0.039543	-2.409985	2.327559	0.027508	-2.409985	1.916813	0.022350	-2.021239	1.779898	0.013753	-1.535357	1.642983	0.171922	-11.212566	12.183702	0.000000	0.000000	17.956335	-1.230433	-21.768048	-201.182244	-48.345019	-315.502627	48.003578	87.902310	-16.975982	-2.930769	150.579700	-10.438750	138.257270	-1.441378	-2.041836	-28.273049	-24.256252
2.733333	-3.769388	0.462082	86.057833	-0.074401	0.819947	0.621564	-2.905478	-6.480716	-7.426969	12.590513	0.219746	30.743749	12.398392	0.000000	-4.985255	2.918282	-15.440185	6.883031	0.120132	29.844472	16.993582	0.000000	0.032716	-1.016676	2.231969	0.060758	-1.352180	2.371467	0.053750	-2.471947	2.371467	0.037392	-2.471947	1.952972	0.030380	-2.073206	1.813474	0.018694	-1.574832	1.673976	0.233690	-11.500847	12.413539	0.000000	0.000000	17.563091	-0.524213	-22.618699	-201.034094	-47.790623	-317.952622	48.053506	87.741874	-17.178254	-3.833775	151.612009	-9.147548	141.227699	-2.735518	-4.170611	-32.073662	-24.284781
2.750000	-3.743919	0.223608	86.192368	-0.074603	0.820134	0.621277	-2.691349	-6.434320	-7.568397	12.507441	0.218296	30.768040	12.572079	0.000000	-4.808577	2.875944	-15.237188	6.784998	0.118421	29.626663	16.955060	0.000000	0.040917	-1.023554	2.245754	0.075987	-1.361326	2.386114	0.067223	-2.488668	2.386114	0.046764	-2.488668	1.965035	0.037996	-2.087230	1.824675	0.023380	-1.585484	1.684316	0.292268	-11.578642	12.490211	0.000000	0.000000	17.112194	0.063224	-23.067189	-200.709418	-47.351341	-319.616789	48.377368	87.391359	-17.679157	-4.772869	152.230535	-8.510664	141.070823	-2.610624	-4.097867	-36.664624	-24.233655
2.766667	-3.690456	0.004634	86.303939	-0.074804	0.820331	0.621042	-2.487943	-6.360083	-7.662313	12.430603	0.216955	30.785490	12.715252	0.000000	-4.655636	2.807146	-15.080185	6.697480	0.116893	29.407616	16.925491	0.000000	0.047487	-1.019912	2.233272	0.088188	-1.356483	2.372852	0.078017	-2.479814	2.372852	0.054273	-2.479814	1.954113	0.044097	-2.079805	1.814534	0.027134	-1.579844	1.674954	0.339196	-11.537451	12.420791	0.000000	0.000000	16.566964	0.555234	-23.182960	-200.289335	-46.990475	-320.812977	48.990920	87.006642	-18.282306	-5.612383	152.471679	-8.454233	138.042465	-1.221999	-2.017529	-41.032947	-24.137527
2.783333	-3.593327	-0.185431	86.400543	-0.075049	0.820511	0.620874	-2.306330	-6.247662	-7.742547	12.367167	0.215848	30.781573	12.830498	0.000000	-4.537137	2.699349	-14.957671	6.621087	0.115560	29.194471	16.889044	0.000000	0.051082	-1.002435	2.204658	0.094864	-1.333238	2.342449	0.083922	-2.437320	2.342449	0.058381	-2.437320	1.929076	0.047434	-2.044165	1.791285	0.029188	-1.552771	1.653494	0.364870	-11.339742	12.261647	0.000000	0.000000	15.906798	0.915611	-22.917068	-199.690034	-46.640398	-321.385818	49.731598	86.423284	-19.126051	-6.473248	152.382645	-8.918674	132.775243	1.177260	1.798533	-45.167606	-24.061450
2.800000	-3.455645	-0.351295	86.474718	-0.075326	0.820699	0.620779	-2.144600	-6.094472	-7.758525	12.313102	0.214904	30.726548	12.849810	0.000000	-4.438073	2.551479	-14.903651	6.581877	0.114875	28.976904	16.863134	0.000000	0.053328	-0.972628	2.159976	0.099035	-1.293596	2.294974	0.087612	-2.364849	2.294974	0.060948	-2.364849	1.889979	0.049520	-1.983384	1.754980	0.030471	-1.506601	1.619982	0.380913	-11.002567	12.013137	0.000000	0.000000	15.119892	1.165652	-22.326461	-199.079428	-46.221218	-321.632578	50.570437	85.857175	-20.152610	-7.171299	151.955161	-9.826452	125.672495	4.451046	7.133678	-48.599240	-23.890428
2.816667	-3.241964	-0.494569	86.507252	-0.075709	0.820901	0.620735	-2.006678	-5.872185	-7.703839	12.260347	0.213983	30.599413	12.799346	0.000000	-4.361619	2.335722	-14.928315	6.578374	0.114814	28.762106	16.838757	0.000000	0.055013	-0.925233	2.113545	0.102164	-1.230560	2.245642	0.090381	-2.249611	2.245642	0.062874	-2.249611	1.849352	0.051085	-1.886735	1.717256	0.031434	-1.433186	1.585159	0.392952	-10.466418	11.754905	0.000000	0.000000	14.209189	1.254447	-21.481793	-198.413210	-45.662491	-321.452069	51.380789	85.356231	-21.391295	-7.667174	151.154377	-11.056267	117.026778	8.425923	13.720415	-51.284273	-23.559578
2.833333	-2.995466	-0.611143	86.513305	-0.076156	0.821099	0.620753	-1.890109	-5.620974	-7.587103	12.221502	0.213305	30.424196	12.664991	0.000000	-4.306499	2.092576	-15.009628	6.605892	0.115295	28.545856	16.822979	0.000000	0.055735	-0.868434	2.059801	0.103505	-1.155017	2.188538	0.091567	-2.111510	2.188538	0.063699	-2.111510	1.802326	0.051755	-1.770910	1.673588	0.031847	-1.345204	1.544851	0.398109	-9.823898	11.455994	0.000000	0.000000	13.260095	1.293417	-20.397362	-197.976720	-44.960551	-321.253554	52.037834	84.963640	-22.751978	-8.087895	150.084835	-12.514992	107.174709	12.924933	21.230806	-52.555192	-22.988071
2.850000	-2.681515	-0.699509	86.455932	-0.076728	0.821281	0.620811	-1.797437	-5.315884	-7.406644	12.188140	0.212723	30.203886	12.506325	0.000000	-4.279141	1.798248	-15.153844	6.656867	0.116184	28.357066	16.796912	0.000000	0.055534	-0.797595	2.023266	0.103133	-1.060801	2.149720	0.091237	-1.939272	2.149720	0.063470	-1.939272	1.770358	0.051569	-1.626455	1.643904	0.031732	-1.235474	1.517450	0.396677	-9.022552	11.252800	0.000000	0.000000	12.302709	1.208690	-19.209972	-197.659882	-44.138720	-320.826849	52.448737	84.685777	-24.262216	-8.508807	148.735352	-14.080034	96.322538	17.764885	29.289273	-52.488652	-22.157937
2.866667	-2.326767	-0.762498	86.346797	-0.077416	0.821436	0.620885	-1.723868	-4.986191	-7.206168	12.170490	0.212415	29.966385	12.371818	0.000000	-4.280795	1.480545	-15.327774	6.708984	0.117094	28.197764	16.763163	0.000000	0.055366	-0.718052	2.005392	0.102820	-0.955009	2.130729	0.090960	-1.745871	2.130729	0.063277	-1.745871	1.754718	0.051413	-1.464251	1.629381	0.031636	-1.112262	1.504044	0.395471	-8.122743	11.153388	0.000000	0.000000	11.395402	1.068855	-17.983911	-197.575360	-43.276427	-320.387416	52.668654	84.566044	-25.666412	-8.803538	147.190821	-15.685045	84.817725	22.780042	37.595124	-51.000709	-21.112158
